<svg xmlns="http://www.w3.org/2000/svg" xmlns:xlink="http://www.w3.org/1999/xlink" viewBox="0 0 101 101">

  <!-- L Neck/R Neck -->
  <path d="M49 61.46H21.48v33.42h27.49" style="fill:#b36b3b"/>
  <path d="M48.97 94.88h27.51V61.46H49" style="fill:#95552f"/>
  
  <!-- L Ear/R Ear -->
  <path d="M17.18 23.91c-6.9 0-12.5 5.6-12.5 12.5s5.6 12.5 12.5 12.5" style="fill:#a25f32"/>
  <path d="M80.77 48.91c6.9 0 12.5-5.6 12.5-12.5s-5.6-12.5-12.5-12.5" style="fill:#5a3316"/>
  
  <!-- L Cheek/R Cheek -->
  <path d="M48.98 74.53c-14.88.37-28.91-9.45-32.26-17.05-.17-.38-.24-.79-.24-1.21V28.33c0-10.93 8.86-19.79 19.79-19.79h12.71" style="fill:#c98254"/>
  <path d="M48.98 8.55h12.71c10.93 0 19.79 8.86 19.79 19.79v27.67c0 .59-.15 1.17-.47 1.66-5.21 8.04-18.91 16.54-32.03 16.87" style="fill:#b46a39"/>

  <!-- L EyePatch/R EyePatch -->
  <path d="M25 25.12h16.88v18.53H26.47c-5.52 0-10-4.48-10-10 0-4.71 3.82-8.53 8.53-8.53Z" style="fill:#9b5623;opacity:.5" transform="rotate(-180 29.18 34.38)"/>
  <path d="M65.32 25.12H81.2c.15 0 .26.12.26.26v18c0 .15-.12.26-.26.26H65.32c-5.11 0-9.26-4.15-9.26-9.26 0-5.11 4.15-9.26 9.26-9.26Z" style="opacity:.5;fill:#602c06"/>

  <!-- L EyeBall/R EyeBall -->
  <circle id="left-eye" cx="65.22" cy="34.75" r="3.5" style="fill:#3c1300"/>
  <circle id="right-eye" cx="33.28" cy="34.75" r="3.5" style="fill:#3c1400"/>


  <!-- Nose -->  
  <circle cx="48.97" cy="57.44" r="5.83" style="fill:#401900"/>

</svg>